<svg width="51" height="35" viewBox="0 0 51 35" fill="none" xmlns="http://www.w3.org/2000/svg">
<g filter="url(#filter0_d)">
<path d="M42.9911 3.00021H21.9339C20.3389 3.00848 18.8037 3.52935 17.6233 4.46269L17.4078 4.66894L4.47604 18.6938C4.13069 19.0672 3.96283 19.5415 4.00692 20.0192C4.05101 20.497 4.30371 20.9419 4.71312 21.2625L17.6449 31.5375C18.8252 32.4708 20.3604 32.9917 21.9555 33H43.0127C44.0608 33.005 45.0685 32.6488 45.8157 32.0094C46.5628 31.37 46.9886 30.4992 47 29.5875V6.41268C46.9944 5.95961 46.8862 5.51195 46.6817 5.09525C46.4772 4.67856 46.1803 4.30098 45.808 3.9841C45.4358 3.66722 44.9954 3.41723 44.5121 3.24841C44.0288 3.0796 43.5119 2.99525 42.9911 3.00021ZM42.6894 29.25H21.9339C21.3998 29.2488 20.8852 29.075 20.4899 28.7625L9.00215 19.6688L20.5976 7.16267C20.9768 6.898 21.4478 6.75263 21.9339 6.75017H42.6894V29.25Z" fill="#854710"/>
<path d="M23.9168 23.0813C24.1172 23.257 24.3556 23.3965 24.6182 23.4917C24.8809 23.5869 25.1626 23.6359 25.4471 23.6359C25.7316 23.6359 26.0133 23.5869 26.276 23.4917C26.5386 23.3965 26.777 23.257 26.9773 23.0813L29.7577 20.6438L32.538 23.0813C32.7384 23.257 32.9767 23.3965 33.2394 23.4917C33.502 23.5869 33.7837 23.6359 34.0683 23.6359C34.3528 23.6359 34.6345 23.5869 34.8971 23.4917C35.1598 23.3965 35.3982 23.257 35.5985 23.0813C35.8005 22.907 35.9609 22.6996 36.0703 22.4711C36.1797 22.2426 36.2361 21.9975 36.2361 21.75C36.2361 21.5025 36.1797 21.2574 36.0703 21.0289C35.9609 20.8005 35.8005 20.5931 35.5985 20.4188L32.7966 18.0001L35.5985 15.5813C36.0044 15.2283 36.2324 14.7494 36.2324 14.2501C36.2324 13.7508 36.0044 13.2719 35.5985 12.9188C35.1927 12.5658 34.6422 12.3674 34.0683 12.3674C33.4943 12.3674 32.9439 12.5658 32.538 12.9188L29.7577 15.3563L26.9773 12.9188C26.5715 12.5658 26.021 12.3674 25.4471 12.3674C24.8731 12.3674 24.3227 12.5658 23.9168 12.9188C23.511 13.2719 23.283 13.7508 23.283 14.2501C23.283 14.7494 23.511 15.2283 23.9168 15.5813L26.7187 18.0001L23.9168 20.4188C23.7148 20.5931 23.5545 20.8005 23.4451 21.0289C23.3356 21.2574 23.2793 21.5025 23.2793 21.75C23.2793 21.9975 23.3356 22.2426 23.4451 22.4711C23.5545 22.6996 23.7148 22.907 23.9168 23.0813Z" fill="#854710"/>
</g>
<defs>
<filter id="filter0_d" x="0" y="-1" width="51" height="38" filterUnits="userSpaceOnUse" color-interpolation-filters="sRGB">
<feFlood flood-opacity="0" result="BackgroundImageFix"/>
<feColorMatrix in="SourceAlpha" type="matrix" values="0 0 0 0 0 0 0 0 0 0 0 0 0 0 0 0 0 0 127 0"/>
<feOffset/>
<feGaussianBlur stdDeviation="2"/>
<feColorMatrix type="matrix" values="0 0 0 0 0 0 0 0 0 0 0 0 0 0 0 0 0 0 0.25 0"/>
<feBlend mode="normal" in2="BackgroundImageFix" result="effect1_dropShadow"/>
<feBlend mode="normal" in="SourceGraphic" in2="effect1_dropShadow" result="shape"/>
</filter>
</defs>
</svg>
