<svg width="33" height="18" viewBox="0 0 33 18" fill="none" xmlns="http://www.w3.org/2000/svg">
<path d="M28.3457 2C28.8761 2 29.3848 2.21071 29.7599 2.58579C30.135 2.96086 30.3457 3.46957 30.3457 4V14C30.3457 14.5304 30.135 15.0391 29.7599 15.4142C29.3848 15.7893 28.8761 16 28.3457 16H4.3457C3.81527 16 3.30656 15.7893 2.93149 15.4142C2.55642 15.0391 2.3457 14.5304 2.3457 14V4C2.3457 3.46957 2.55642 2.96086 2.93149 2.58579C3.30656 2.21071 3.81527 2 4.3457 2H28.3457ZM4.3457 0C3.28484 0 2.26742 0.421427 1.51728 1.17157C0.767131 1.92172 0.345703 2.93913 0.345703 4L0.345703 14C0.345703 15.0609 0.767131 16.0783 1.51728 16.8284C2.26742 17.5786 3.28484 18 4.3457 18H28.3457C29.4066 18 30.424 17.5786 31.1741 16.8284C31.9243 16.0783 32.3457 15.0609 32.3457 14V4C32.3457 2.93913 31.9243 1.92172 31.1741 1.17157C30.424 0.421427 29.4066 0 28.3457 0H4.3457Z" fill="#C7C7C7"/>
<path d="M26.3457 12.5C26.3457 12.3674 26.3984 12.2402 26.4922 12.1464C26.5859 12.0527 26.7131 12 26.8457 12H27.8457C27.9783 12 28.1055 12.0527 28.1993 12.1464C28.293 12.2402 28.3457 12.3674 28.3457 12.5V13.5C28.3457 13.6326 28.293 13.7598 28.1993 13.8536C28.1055 13.9473 27.9783 14 27.8457 14H26.8457C26.7131 14 26.5859 13.9473 26.4922 13.8536C26.3984 13.7598 26.3457 13.6326 26.3457 13.5V12.5ZM26.3457 8.5C26.3457 8.36739 26.3984 8.24021 26.4922 8.14645C26.5859 8.05268 26.7131 8 26.8457 8H27.8457C27.9783 8 28.1055 8.05268 28.1993 8.14645C28.293 8.24021 28.3457 8.36739 28.3457 8.5V9.5C28.3457 9.63261 28.293 9.75979 28.1993 9.85355C28.1055 9.94732 27.9783 10 27.8457 10H26.8457C26.7131 10 26.5859 9.94732 26.4922 9.85355C26.3984 9.75979 26.3457 9.63261 26.3457 9.5V8.5ZM16.3457 8.5C16.3457 8.36739 16.3984 8.24021 16.4922 8.14645C16.5859 8.05268 16.7131 8 16.8457 8H17.8457C17.9783 8 18.1055 8.05268 18.1993 8.14645C18.293 8.24021 18.3457 8.36739 18.3457 8.5V9.5C18.3457 9.63261 18.293 9.75979 18.1993 9.85355C18.1055 9.94732 17.9783 10 17.8457 10H16.8457C16.7131 10 16.5859 9.94732 16.4922 9.85355C16.3984 9.75979 16.3457 9.63261 16.3457 9.5V8.5ZM20.3457 8.5C20.3457 8.36739 20.3984 8.24021 20.4922 8.14645C20.5859 8.05268 20.7131 8 20.8457 8H23.8457C23.9783 8 24.1055 8.05268 24.1993 8.14645C24.293 8.24021 24.3457 8.36739 24.3457 8.5V9.5C24.3457 9.63261 24.293 9.75979 24.1993 9.85355C24.1055 9.94732 23.9783 10 23.8457 10H20.8457C20.7131 10 20.5859 9.94732 20.4922 9.85355C20.3984 9.75979 20.3457 9.63261 20.3457 9.5V8.5ZM22.3457 12.5C22.3457 12.3674 22.3984 12.2402 22.4922 12.1464C22.5859 12.0527 22.7131 12 22.8457 12H23.8457C23.9783 12 24.1055 12.0527 24.1993 12.1464C24.293 12.2402 24.3457 12.3674 24.3457 12.5V13.5C24.3457 13.6326 24.293 13.7598 24.1993 13.8536C24.1055 13.9473 23.9783 14 23.8457 14H22.8457C22.7131 14 22.5859 13.9473 22.4922 13.8536C22.3984 13.7598 22.3457 13.6326 22.3457 13.5V12.5ZM12.3457 8.5C12.3457 8.36739 12.3984 8.24021 12.4922 8.14645C12.5859 8.05268 12.7131 8 12.8457 8H13.8457C13.9783 8 14.1055 8.05268 14.1993 8.14645C14.293 8.24021 14.3457 8.36739 14.3457 8.5V9.5C14.3457 9.63261 14.293 9.75979 14.1993 9.85355C14.1055 9.94732 13.9783 10 13.8457 10H12.8457C12.7131 10 12.5859 9.94732 12.4922 9.85355C12.3984 9.75979 12.3457 9.63261 12.3457 9.5V8.5ZM8.3457 8.5C8.3457 8.36739 8.39838 8.24021 8.49215 8.14645C8.58592 8.05268 8.7131 8 8.8457 8H9.8457C9.97831 8 10.1055 8.05268 10.1993 8.14645C10.293 8.24021 10.3457 8.36739 10.3457 8.5V9.5C10.3457 9.63261 10.293 9.75979 10.1993 9.85355C10.1055 9.94732 9.97831 10 9.8457 10H8.8457C8.7131 10 8.58592 9.94732 8.49215 9.85355C8.39838 9.75979 8.3457 9.63261 8.3457 9.5V8.5ZM4.3457 8.5C4.3457 8.36739 4.39838 8.24021 4.49215 8.14645C4.58592 8.05268 4.71309 8 4.8457 8H5.8457C5.97831 8 6.10549 8.05268 6.19926 8.14645C6.29302 8.24021 6.3457 8.36739 6.3457 8.5V9.5C6.3457 9.63261 6.29302 9.75979 6.19926 9.85355C6.10549 9.94732 5.97831 10 5.8457 10H4.8457C4.71309 10 4.58592 9.94732 4.49215 9.85355C4.39838 9.75979 4.3457 9.63261 4.3457 9.5V8.5ZM26.3457 4.5C26.3457 4.36739 26.3984 4.24021 26.4922 4.14645C26.5859 4.05268 26.7131 4 26.8457 4H27.8457C27.9783 4 28.1055 4.05268 28.1993 4.14645C28.293 4.24021 28.3457 4.36739 28.3457 4.5V5.5C28.3457 5.63261 28.293 5.75979 28.1993 5.85355C28.1055 5.94732 27.9783 6 27.8457 6H26.8457C26.7131 6 26.5859 5.94732 26.4922 5.85355C26.3984 5.75979 26.3457 5.63261 26.3457 5.5V4.5ZM22.3457 4.5C22.3457 4.36739 22.3984 4.24021 22.4922 4.14645C22.5859 4.05268 22.7131 4 22.8457 4H23.8457C23.9783 4 24.1055 4.05268 24.1993 4.14645C24.293 4.24021 24.3457 4.36739 24.3457 4.5V5.5C24.3457 5.63261 24.293 5.75979 24.1993 5.85355C24.1055 5.94732 23.9783 6 23.8457 6H22.8457C22.7131 6 22.5859 5.94732 22.4922 5.85355C22.3984 5.75979 22.3457 5.63261 22.3457 5.5V4.5ZM18.3457 4.5C18.3457 4.36739 18.3984 4.24021 18.4922 4.14645C18.5859 4.05268 18.7131 4 18.8457 4H19.8457C19.9783 4 20.1055 4.05268 20.1993 4.14645C20.293 4.24021 20.3457 4.36739 20.3457 4.5V5.5C20.3457 5.63261 20.293 5.75979 20.1993 5.85355C20.1055 5.94732 19.9783 6 19.8457 6H18.8457C18.7131 6 18.5859 5.94732 18.4922 5.85355C18.3984 5.75979 18.3457 5.63261 18.3457 5.5V4.5ZM14.3457 4.5C14.3457 4.36739 14.3984 4.24021 14.4922 4.14645C14.5859 4.05268 14.7131 4 14.8457 4H15.8457C15.9783 4 16.1055 4.05268 16.1993 4.14645C16.293 4.24021 16.3457 4.36739 16.3457 4.5V5.5C16.3457 5.63261 16.293 5.75979 16.1993 5.85355C16.1055 5.94732 15.9783 6 15.8457 6H14.8457C14.7131 6 14.5859 5.94732 14.4922 5.85355C14.3984 5.75979 14.3457 5.63261 14.3457 5.5V4.5ZM10.3457 4.5C10.3457 4.36739 10.3984 4.24021 10.4922 4.14645C10.5859 4.05268 10.7131 4 10.8457 4H11.8457C11.9783 4 12.1055 4.05268 12.1993 4.14645C12.293 4.24021 12.3457 4.36739 12.3457 4.5V5.5C12.3457 5.63261 12.293 5.75979 12.1993 5.85355C12.1055 5.94732 11.9783 6 11.8457 6H10.8457C10.7131 6 10.5859 5.94732 10.4922 5.85355C10.3984 5.75979 10.3457 5.63261 10.3457 5.5V4.5ZM4.3457 4.5C4.3457 4.36739 4.39838 4.24021 4.49215 4.14645C4.58592 4.05268 4.71309 4 4.8457 4H7.8457C7.97831 4 8.10549 4.05268 8.19926 4.14645C8.29303 4.24021 8.3457 4.36739 8.3457 4.5V5.5C8.3457 5.63261 8.29303 5.75979 8.19926 5.85355C8.10549 5.94732 7.97831 6 7.8457 6H4.8457C4.71309 6 4.58592 5.94732 4.49215 5.85355C4.39838 5.75979 4.3457 5.63261 4.3457 5.5V4.5ZM4.3457 12.5C4.3457 12.3674 4.39838 12.2402 4.49215 12.1464C4.58592 12.0527 4.71309 12 4.8457 12H5.8457C5.97831 12 6.10549 12.0527 6.19926 12.1464C6.29302 12.2402 6.3457 12.3674 6.3457 12.5V13.5C6.3457 13.6326 6.29302 13.7598 6.19926 13.8536C6.10549 13.9473 5.97831 14 5.8457 14H4.8457C4.71309 14 4.58592 13.9473 4.49215 13.8536C4.39838 13.7598 4.3457 13.6326 4.3457 13.5V12.5ZM8.3457 12.5C8.3457 12.3674 8.39838 12.2402 8.49215 12.1464C8.58592 12.0527 8.7131 12 8.8457 12H19.8457C19.9783 12 20.1055 12.0527 20.1993 12.1464C20.293 12.2402 20.3457 12.3674 20.3457 12.5V13.5C20.3457 13.6326 20.293 13.7598 20.1993 13.8536C20.1055 13.9473 19.9783 14 19.8457 14H8.8457C8.7131 14 8.58592 13.9473 8.49215 13.8536C8.39838 13.7598 8.3457 13.6326 8.3457 13.5V12.5Z" fill="#C7C7C7"/>
</svg>
