<svg width="28" height="27" viewBox="0 0 28 27" fill="none" xmlns="http://www.w3.org/2000/svg">
<path d="M4.75 25H15C15.464 24.9996 16.1588 24.8216 16.4869 24.5052C16.815 24.1889 16.9995 23.7599 17 23.3125V20.7812H15V22.9724H5V3.375H15V5.59375H17V3.0625C16.9995 2.61508 16.815 2.18612 16.4869 1.86975C16.1588 1.55338 15.714 1.37545 15.25 1.375H4.75C4.28601 1.37545 3.84116 1.55338 3.51307 1.86975C3.18499 2.18612 3.00046 2.61508 3 3.0625V23.3125C3.00046 23.7599 3.18499 24.1889 3.51307 24.5052C3.84116 24.8216 4.28601 24.9996 4.75 25Z" fill="#C7C7C7"/>
<path d="M15.4872 16.9319L12.3495 13.9062H24.75V12.2188H12.3495L15.4872 9.19306L14.25 8L9 13.0625L14.25 18.125L15.4872 16.9319Z" fill="#C7C7C7"/>
</svg>
