<svg width="25" height="25" viewBox="0 0 25 26" fill="none" xmlns="http://www.w3.org/2000/svg">
<rect y="6.82837" width="4" height="26.5772" rx="2" transform="rotate(-45 0 6.82837)" fill="#FE7658"/>
<path d="M24.3536 14.3536C24.5488 14.1583 24.5488 13.8417 24.3536 13.6464L21.1716 10.4645C20.9763 10.2692 20.6597 10.2692 20.4645 10.4645C20.2692 10.6597 20.2692 10.9763 20.4645 11.1716L23.2929 14L20.4645 16.8284C20.2692 17.0237 20.2692 17.3403 20.4645 17.5355C20.6597 17.7308 20.9763 17.7308 21.1716 17.5355L24.3536 14.3536ZM11 14.5L24 14.5V13.5L11 13.5V14.5Z" fill="black"/>
<line x1="11.5" y1="14" x2="11.5" stroke="black"/>
</svg>
