<svg width="34" height="33" viewBox="0 0 34 33" fill="none" xmlns="http://www.w3.org/2000/svg">
<path fill-rule="evenodd" clip-rule="evenodd" d="M17.6 1.45003C17.2444 1.18335 16.7555 1.18334 16.4 1.45001L1.5383 12.5963C1.21284 12.8404 1.0677 13.2573 1.17121 13.6507L5.80286 31.2544C5.91846 31.6938 6.31566 32 6.76995 32H27.2281C27.6824 32 28.0796 31.6938 28.1952 31.2545L32.8278 13.6507C32.9313 13.2573 32.7862 12.8404 32.4607 12.5963L17.6 1.45003ZM22 28C22.5523 28 23 27.5523 23 27V17.5V10.5C23 9.94771 22.5523 9.5 22 9.5H11.999C11.4467 9.5 10.999 9.94771 10.999 10.5V11.5C10.999 12.0523 11.4467 12.5 11.999 12.5H18.999C19.5513 12.5 19.999 12.9477 19.999 13.5V15.5C19.999 16.0523 19.5513 16.5 18.999 16.5H11.999C11.4467 16.5 10.999 16.9477 10.999 17.5V18.5C10.999 19.0523 11.4467 19.5 11.999 19.5H18.999C19.5513 19.5 19.999 19.9477 19.999 20.5V24C19.999 24.5523 19.5513 25 18.999 25H11.999C11.4467 25 10.999 25.4477 10.999 26V27C10.999 27.5523 11.4467 28 11.999 28H22Z" fill="#76CB4E" stroke="black" stroke-width="2"/>
</svg>
