<svg width="34" height="33" viewBox="0 0 34 33" fill="none" xmlns="http://www.w3.org/2000/svg">
<path fill-rule="evenodd" clip-rule="evenodd" d="M17.6 1.45003C17.2444 1.18335 16.7555 1.18334 16.4 1.45001L1.5383 12.5963C1.21284 12.8404 1.0677 13.2573 1.17121 13.6507L5.80286 31.2544C5.91846 31.6938 6.31566 32 6.76995 32H27.2281C27.6824 32 28.0796 31.6938 28.1952 31.2545L32.8278 13.6507C32.9313 13.2573 32.7862 12.8404 32.4607 12.5963L17.6 1.45003ZM15 13C15.5523 13 16 13.4477 16 14V27C16 27.5523 16.4477 28 17 28H18C18.5523 28 19 27.5523 19 27V9.91901C19 9.22747 18.3149 8.74468 17.6637 8.97726L12.6637 10.763C12.2657 10.9051 12 11.2821 12 11.7047V12C12 12.5523 12.4477 13 13 13H15Z" fill="#3A8FDD" stroke="black" stroke-width="2"/>
</svg>
