<svg width="34" height="33" viewBox="0 0 34 33" fill="none" xmlns="http://www.w3.org/2000/svg">
<path fill-rule="evenodd" clip-rule="evenodd" d="M17.6 1.45003C17.2444 1.18335 16.7555 1.18334 16.4 1.45001L1.5383 12.5963C1.21284 12.8404 1.0677 13.2573 1.17121 13.6507L5.80286 31.2544C5.91846 31.6938 6.31566 32 6.76995 32H27.2281C27.6824 32 28.0796 31.6938 28.1952 31.2545L32.8278 13.6507C32.9313 13.2573 32.7862 12.8404 32.4607 12.5963L17.6 1.45003ZM23 11C23 10.4477 22.5523 10 22 10H11.999C11.4467 10 10.999 10.4477 10.999 11V19.5C10.999 20.0523 11.4467 20.5 11.999 20.5H18.999C19.5513 20.5 19.999 20.9477 19.999 21.5V24C19.999 24.5523 19.5513 25 18.999 25H11.999C11.4467 25 10.999 25.4477 10.999 26V27C10.999 27.5523 11.4467 28 11.999 28H22C22.5523 28 23 27.5523 23 27V18.5C23 17.9477 22.5523 17.5 22 17.5H14.999C14.4467 17.5 13.999 17.0523 13.999 16.5V14C13.999 13.4477 14.4467 13 14.999 13H22C22.5523 13 23 12.5523 23 12V11Z" fill="#5B5B5B" stroke="black" stroke-width="2"/>
</svg>
