<svg width="34" height="33" viewBox="0 0 34 33" fill="none" xmlns="http://www.w3.org/2000/svg">
<path fill-rule="evenodd" clip-rule="evenodd" d="M17.601 1.45003C17.2454 1.18335 16.7565 1.18334 16.401 1.45001L1.53927 12.5963C1.21382 12.8404 1.06867 13.2573 1.17219 13.6507L5.80384 31.2544C5.91943 31.6938 6.31664 32 6.77093 32H27.2291C27.6834 32 28.0806 31.6938 28.1962 31.2545L32.8288 13.6507C32.9323 13.2573 32.7872 12.8404 32.4617 12.5963L17.601 1.45003ZM21.5 23C20.9477 23 20.5 23.4477 20.5 24V28.5C20.5 29.0523 20.0523 29.5 19.5 29.5H18.5C17.9477 29.5 17.5 29.0523 17.5 28.5V24C17.5 23.4477 17.0523 23 16.5 23H8.16729C7.31408 23 6.85276 22.0002 7.40645 21.3511L18.7392 8.06443C19.3424 7.35715 20.5 7.78377 20.5 8.71337V19C20.5 19.5523 20.9477 20 21.5 20H24C24.5523 20 25 20.4477 25 21V22C25 22.5523 24.5523 23 24 23H21.5Z" fill="#F9CB29"/>
<path d="M17 20C17.5523 20 18 19.5523 18 19V15.8913C18 14.9416 16.8004 14.5267 16.2137 15.2735L13.7711 18.3822C13.2556 19.0383 13.723 20 14.5575 20H17Z" fill="#F9CB29"/>
<path fill-rule="evenodd" clip-rule="evenodd" d="M17.601 1.45003C17.2454 1.18335 16.7565 1.18334 16.401 1.45001L1.53927 12.5963C1.21382 12.8404 1.06867 13.2573 1.17219 13.6507L5.80384 31.2544C5.91943 31.6938 6.31664 32 6.77093 32H27.2291C27.6834 32 28.0806 31.6938 28.1962 31.2545L32.8288 13.6507C32.9323 13.2573 32.7872 12.8404 32.4617 12.5963L17.601 1.45003ZM21.5 23C20.9477 23 20.5 23.4477 20.5 24V28.5C20.5 29.0523 20.0523 29.5 19.5 29.5H18.5C17.9477 29.5 17.5 29.0523 17.5 28.5V24C17.5 23.4477 17.0523 23 16.5 23H8.16729C7.31408 23 6.85276 22.0002 7.40645 21.3511L18.7392 8.06443C19.3424 7.35715 20.5 7.78377 20.5 8.71337V19C20.5 19.5523 20.9477 20 21.5 20H24C24.5523 20 25 20.4477 25 21V22C25 22.5523 24.5523 23 24 23H21.5Z" stroke="black" stroke-width="2"/>
<path d="M17 20C17.5523 20 18 19.5523 18 19V15.8913C18 14.9416 16.8004 14.5267 16.2137 15.2735L13.7711 18.3822C13.2556 19.0383 13.723 20 14.5575 20H17Z" stroke="black" stroke-width="2"/>
</svg>
