<svg width="40" height="35" viewBox="0 0 40 35" fill="none" xmlns="http://www.w3.org/2000/svg">
<g filter="url(#filter0_d)">
<path d="M21.3995 18.1175L9.59647 19.9492C9.46077 19.9702 9.33343 20.0242 9.22724 20.1056C9.12106 20.187 9.03978 20.293 8.99158 20.4129L4.92194 30.5585C4.53331 31.4919 5.58167 32.3814 6.54384 31.9337L34.7509 18.8087C34.9462 18.718 35.1106 18.5783 35.2254 18.4055C35.3403 18.2326 35.4011 18.0334 35.4011 17.8302C35.4011 17.627 35.3403 17.4278 35.2254 17.2549C35.1106 17.0821 34.9462 16.9424 34.7509 16.8517L6.54384 3.72665C5.58167 3.27895 4.53331 4.16999 4.92194 5.10186L8.99315 15.2475C9.04113 15.3677 9.1223 15.474 9.2285 15.5556C9.3347 15.6373 9.46216 15.6915 9.59803 15.7127L21.4011 17.5429C21.4737 17.5547 21.5396 17.59 21.587 17.6426C21.6344 17.6951 21.6604 17.7616 21.6604 17.8302C21.6604 17.8988 21.6344 17.9653 21.587 18.0178C21.5396 18.0703 21.4737 18.1056 21.4011 18.1175H21.3995Z" fill="#854710"/>
</g>
<defs>
<filter id="filter0_d" x="-2.68262" y="-3.66982" width="45.6094" height="43" filterUnits="userSpaceOnUse" color-interpolation-filters="sRGB">
<feFlood flood-opacity="0" result="BackgroundImageFix"/>
<feColorMatrix in="SourceAlpha" type="matrix" values="0 0 0 0 0 0 0 0 0 0 0 0 0 0 0 0 0 0 127 0"/>
<feOffset/>
<feGaussianBlur stdDeviation="2"/>
<feColorMatrix type="matrix" values="0 0 0 0 0 0 0 0 0 0 0 0 0 0 0 0 0 0 0.25 0"/>
<feBlend mode="normal" in2="BackgroundImageFix" result="effect1_dropShadow"/>
<feBlend mode="normal" in="SourceGraphic" in2="effect1_dropShadow" result="shape"/>
</filter>
</defs>
</svg>
