<svg width="25" height="25" viewBox="0 0 25 25" fill="none" xmlns="http://www.w3.org/2000/svg">
<path d="M2 18.6875C2 19.9121 4.92183 20.9539 9 21.34V16.4773V8.41209C6.35062 8.26808 4.18926 7.94189 3 7.39524C2.35864 7.10045 2 6.74153 2 6.3125V13.5V18.6875Z" fill="#FE7658"/>
<path d="M18 21.0837C21.0001 20.5886 23 19.7006 23 18.6875V13.5V6.3125C23 6.9296 22.258 7.40163 21 7.74647C20.1926 7.96777 19.1727 8.13668 18 8.25793C17.0838 8.35266 16.0743 8.41829 15 8.45707V16.4254V21.5C15.5582 21.4476 16.9396 21.2909 18 21.0837Z" fill="#FE7658"/>
<path d="M21 4.83502C19.0914 4.27579 15.9952 4 12.5 4C12.3324 4 12.1657 4.00063 12 4.0019C8.01654 4.03242 4.61355 4.43002 3 5.20641C2.35864 5.51502 2 5.88347 2 6.3125C2 6.74153 2.35864 7.10045 3 7.39524C4.18926 7.94189 6.35062 8.26808 9 8.41209V16.4773C9.94514 16.4183 10.9524 16.3849 11.9998 16.3769L12.4998 16.375C13.3614 16.375 14.1987 16.3918 15 16.4254V8.45707C16.0743 8.41829 17.0838 8.35266 18 8.25793C19.1727 8.13668 20.1926 7.96777 21 7.74647C22.258 7.40163 23 6.9296 23 6.3125C23 5.6954 22.258 5.20364 21 4.83502Z" fill="#FE7658"/>
<path d="M2 6.3125C2 5.88347 2.35864 5.51502 3 5.20641C4.61355 4.43002 8.01654 4.03242 12 4.0019C12.1657 4.00063 12.3324 4 12.5 4C15.9952 4 19.0914 4.27579 21 4.83502C22.258 5.20364 23 5.6954 23 6.3125M2 6.3125C2 6.74153 2.35864 7.10045 3 7.39524C4.18926 7.94189 6.35062 8.26808 9 8.41209V16.4773M2 6.3125V13.5V18.6875M2 6.3125V18.6875M2 18.6875C2 19.9121 4.92183 20.9539 9 21.34V16.4773M23 6.3125C23 6.9296 22.258 7.40163 21 7.74647C20.1926 7.96777 19.1727 8.13668 18 8.25793C17.0838 8.35266 16.0743 8.41829 15 8.45707V16.4254M23 6.3125V13.5V18.6875M23 6.3125V18.6875M23 18.6875C23 19.7006 21.0001 20.5886 18 21.0837C16.9396 21.2909 15.5582 21.4476 15 21.5V16.4254M9 16.4773C9.94514 16.4183 10.9524 16.3849 11.9998 16.3769L12.4998 16.375C13.3614 16.375 14.1987 16.3918 15 16.4254" stroke="#FFCEC2" stroke-width="0.5"/>
</svg>
