<svg width="36" height="36" viewBox="0 0 36 36" fill="none" xmlns="http://www.w3.org/2000/svg">
<path fill-rule="evenodd" clip-rule="evenodd" d="M33.75 4.5C33.75 3.90326 33.5129 3.33097 33.091 2.90901C32.669 2.48705 32.0967 2.25 31.5 2.25H4.5C3.90326 2.25 3.33097 2.48705 2.90901 2.90901C2.48705 3.33097 2.25 3.90326 2.25 4.5V31.5C2.25 32.0967 2.48705 32.669 2.90901 33.091C3.33097 33.5129 3.90326 33.75 4.5 33.75H31.5C32.0967 33.75 32.669 33.5129 33.091 33.091C33.5129 32.669 33.75 32.0967 33.75 31.5V4.5ZM0 4.5C0 3.30653 0.474106 2.16193 1.31802 1.31802C2.16193 0.474106 3.30653 0 4.5 0L31.5 0C32.6935 0 33.8381 0.474106 34.682 1.31802C35.5259 2.16193 36 3.30653 36 4.5V31.5C36 32.6935 35.5259 33.8381 34.682 34.682C33.8381 35.5259 32.6935 36 31.5 36H4.5C3.30653 36 2.16193 35.5259 1.31802 34.682C0.474106 33.8381 0 32.6935 0 31.5V4.5ZM19.125 25.875C19.125 26.1734 19.0065 26.4595 18.7955 26.6705C18.5845 26.8815 18.2984 27 18 27C17.7016 27 17.4155 26.8815 17.2045 26.6705C16.9935 26.4595 16.875 26.1734 16.875 25.875V12.8407L12.0465 17.6715C11.8353 17.8827 11.5487 18.0014 11.25 18.0014C10.9513 18.0014 10.6647 17.8827 10.4535 17.6715C10.2423 17.4603 10.1236 17.1737 10.1236 16.875C10.1236 16.5763 10.2423 16.2897 10.4535 16.0785L17.2035 9.3285C17.308 9.22373 17.4321 9.14061 17.5688 9.0839C17.7055 9.02718 17.852 8.99799 18 8.99799C18.148 8.99799 18.2945 9.02718 18.4312 9.0839C18.5679 9.14061 18.692 9.22373 18.7965 9.3285L25.5465 16.0785C25.7577 16.2897 25.8764 16.5763 25.8764 16.875C25.8764 17.1737 25.7577 17.4603 25.5465 17.6715C25.3353 17.8827 25.0487 18.0014 24.75 18.0014C24.4513 18.0014 24.1647 17.8827 23.9535 17.6715L19.125 12.8407V25.875Z" fill="black"/>
</svg>
