<svg width="41" height="40" viewBox="0 0 41 40" fill="none" xmlns="http://www.w3.org/2000/svg">
<path d="M30.4998 16.6666H15.4998V11.6666C15.4998 8.90998 17.7432 6.66665 20.4998 6.66665C23.2565 6.66665 25.4998 8.90998 25.4998 11.6666H28.8332C28.8332 7.07165 25.0948 3.33331 20.4998 3.33331C15.9048 3.33331 12.1665 7.07165 12.1665 11.6666V16.6666H10.4998C9.61578 16.6666 8.76794 17.0178 8.14281 17.643C7.51769 18.2681 7.1665 19.1159 7.1665 20V33.3333C7.1665 34.2174 7.51769 35.0652 8.14281 35.6903C8.76794 36.3155 9.61578 36.6666 10.4998 36.6666H30.4998C31.3839 36.6666 32.2317 36.3155 32.8569 35.6903C33.482 35.0652 33.8332 34.2174 33.8332 33.3333V20C33.8332 19.1159 33.482 18.2681 32.8569 17.643C32.2317 17.0178 31.3839 16.6666 30.4998 16.6666ZM17.2682 25.8316C17.473 25.0474 17.9564 24.3645 18.628 23.9105C19.2995 23.4566 20.1134 23.2627 20.9175 23.3649C21.7216 23.4672 22.461 23.8587 22.9976 24.4663C23.5341 25.0739 23.8312 25.8561 23.8332 26.6666C23.8322 27.2495 23.6776 27.8219 23.385 28.3261C23.0925 28.8302 22.6722 29.2483 22.1665 29.5383V33.3333H18.8332V29.5383C18.2025 29.177 17.7079 28.6186 17.4252 27.9491C17.1425 27.2795 17.0873 26.5356 17.2682 25.8316Z" fill="#F1FF51"/>
</svg>
