<svg width="64" height="64" viewBox="0 0 64 64" fill="none" xmlns="http://www.w3.org/2000/svg">
<g clip-path="url(#clip0)">
<path d="M60.9193 6.14062C60.9773 6.05018 61.0387 5.96125 61.1147 5.88525L63.7071 3.29289C63.8946 3.10536 64 2.851 64 2.58579V1C64 0.447715 63.5523 0 63 0H1C0.447715 0 0 0.447715 0 1V2.58579C0 2.851 0.105357 3.10536 0.292893 3.29289L2.70711 5.70711C2.89464 5.89464 3.16196 6.00009 3.42718 5.99964C15.3744 5.97934 10.2193 5.10262 15.4927 5.00821C16.0449 4.99833 16.8946 4.81663 17.4468 4.80337C18.6047 4.77557 20.6405 4.96873 22.5 5.5C26 6.5 26 7 27 7C28 7 29.5 8 31 7C32.5 6 31.5 6.5 33 6C34.1741 5.60865 37.9965 5.50446 39.8782 5.50014C39.9599 5.49995 40.0393 5.51018 40.1191 5.5284C40.877 5.70172 42.7297 6 45 6H53C54.5 6 58.5 7 59.5 7C60.1987 7 60.694 6.49147 60.9193 6.14062Z" fill="#854710"/>
<path d="M45 6C42.7297 6 40.877 5.70172 40.1191 5.5284C40.0393 5.51018 39.9599 5.49995 39.8782 5.50014C37.9965 5.50446 34.1741 5.60865 33 6C31.5 6.5 32.5 6 31 7C29.5 8 28 7 27 7C26 7 26 6.5 22.5 5.5C20.6405 4.96873 18.6047 4.77557 17.4468 4.80337C16.8946 4.81663 16.0449 4.99833 15.4927 5.00821C10.2193 5.10262 15.3744 5.97934 3.42718 5.99964C3.16196 6.00009 2.89464 5.89464 2.70711 5.70711L0.292893 3.29289C0.105357 3.10536 0 2.851 0 2.58579V1C0 0.447715 0.447715 0 1 0H63C63.5523 0 64 0.447715 64 1V2.58579C64 2.851 63.8946 3.10536 63.7071 3.29289L61.1147 5.88525C61.0387 5.96125 60.9773 6.05018 60.9193 6.14062C60.694 6.49147 60.1987 7 59.5 7C58.5 7 54.5 6 53 6M45 6C48 6 51.5 6 53 6M45 6H53" stroke="black" stroke-width="0.5"/>
</g>
<defs>
<clipPath id="clip0">
<rect width="64" height="64" fill="white"/>
</clipPath>
</defs>
</svg>
